<svg role="img" viewBox="0 0 24 24" xmlns="http://www.w3.org/2000/svg" fill="#EA4B71"><title>n8n</title><path d="M21.4696 7.8344a2.5454 2.5454 0 0 0-2.4944 2.0364h-1.7594a2.1818 2.1818 0 0 0-2.1454 1.8l-.1.5818a1.0909 1.0909 0 0 1-1.0727.9h-.6182a2.5454 2.5454 0 0 0-4.9416 0H5.0248a2.5454 2.5454 0 1 0 0 1.4545h3.312a2.5454 2.5454 0 0 0 4.9417 0h.6181a1.0909 1.0909 0 0 1 1.0728.9l.1.5818a2.1818 2.1818 0 0 0 2.1454 1.8h.4867a2.5454 2.5454 0 1 0 0-1.4545h-.4867a.7273.7273 0 0 1-.7151-.6l-.1-.5818a2.1818 2.1818 0 0 0-1.3847-1.6513 2.1818 2.1818 0 0 0 1.3847-1.6513l.1-.5818a.7273.7273 0 0 1 .7151-.6h1.7594a2.5454 2.5454 0 1 0 2.4944-3.0909zm0 1.4545a1.0909 1.0909 0 1 1 0 2.1818 1.0909 1.0909 0 0 1 0-2.1818zM2.5454 11.1982a1.0909 1.0909 0 1 1 0 2.1818 1.0909 1.0909 0 0 1 0-2.1818zm8.3636 0a1.0909 1.0909 0 1 1 0 2.1818 1.0909 1.0909 0 0 1 0-2.1818zm10.5606 3.2727a1.0909 1.0909 0 1 1 0 2.1818 1.0909 1.0909 0 0 1 0-2.1818z"/></svg>
